<svg width="32" height="32" viewBox="0 0 32 32" fill="none" xmlns="http://www.w3.org/2000/svg">
<rect width="32.0004" height="32" fill="#0D0D0D"/>
<path d="M19.3699 9.83805C19.3614 9.84971 19.3572 9.8635 19.3572 9.87728C19.3572 9.89212 19.3614 9.9059 19.3699 9.91757C19.3794 9.92817 19.3911 9.93665 19.4049 9.94301L20.1141 10.1974C20.5021 10.3384 20.8531 10.5632 21.1457 10.8547C21.4383 11.1452 21.663 11.4983 21.8019 11.8873L22.0574 12.5934C22.0616 12.6072 22.0701 12.6199 22.0818 12.6284C22.0945 12.6369 22.1083 12.6411 22.1231 12.6411C22.138 12.6411 22.1528 12.6369 22.1645 12.6284C22.1751 12.6178 22.1825 12.6061 22.1889 12.5934L22.4444 11.8873C22.5843 11.4993 22.808 11.1463 23.1006 10.8547C23.3911 10.5611 23.7431 10.3363 24.1321 10.1974L24.8414 9.94301C24.8552 9.93877 24.8679 9.92923 24.8764 9.91757C24.8859 9.9059 24.8901 9.89212 24.8891 9.87728C24.8891 9.86244 24.8848 9.84759 24.8764 9.83593C24.8668 9.82533 24.8552 9.81685 24.8414 9.81155L24.1321 9.55605C23.7452 9.41399 23.3932 9.18924 23.1006 8.89875C22.808 8.60827 22.5832 8.2563 22.4444 7.86722L22.1889 7.15903C22.1846 7.14525 22.1761 7.13253 22.1645 7.12405C22.1528 7.11557 22.138 7.11133 22.1231 7.11133C22.1083 7.11133 22.0934 7.11557 22.0818 7.12405C22.0712 7.13359 22.0627 7.14525 22.0574 7.15903L21.8019 7.86934C21.662 8.25736 21.4372 8.60933 21.1457 8.90087C20.8552 9.19454 20.5032 9.41929 20.1141 9.55817L19.4049 9.81367C19.3911 9.81791 19.3784 9.82639 19.3699 9.83805Z" fill="#F3FE00"/>
<path d="M18.9641 13.0381H13.0378V18.9644H18.9641V13.0381Z" fill="#F3FE00"/>
<path d="M21.9257 21.926H10.0742V10.0745H17.9756L19.9316 7.11133H7.11108V24.8891H24.8889V12.0654C24.8889 12.0654 21.9257 14.0405 21.9257 14.0278V21.926Z" fill="#F3FE00"/>
</svg>
